<svg opacity="0.25" width="1920" height="885" viewBox="0 0 1920 885" fill="none"
    xmlns="http://www.w3.org/2000/svg">
    <path
        d="M431.25 183.518C448.731 186.152 517.849 171.187 538.788 153.248C531.365 143.19 521.107 137.71 508.934 121.216C503.59 113.975 484.713 85.0278 483.634 30.5178C482.786 -12.355 466.331 -52.4109 425.539 -60.8339C384.746 -69.257 362.581 -53.5203 349.707 -44.0195C335.224 -33.3311 314.751 14.7126 309.521 18.5723C304.291 22.432 283.748 5.3004 280.346 15.2467C277.788 22.7273 288.066 25.7065 301.226 30.9082C311.589 44.3887 325.935 68.599 331.48 88.7441C335.176 102.173 360.136 148.228 372.25 157.461C402.075 180.192 413.77 180.883 431.25 183.518Z"
        stroke="#261003" stroke-opacity="0.2" stroke-width="2" />
    <circle cx="400.025" cy="44.3717" r="66.5" transform="rotate(143.573 400.025 44.3717)"
        stroke="#261003" stroke-opacity="0.2" stroke-width="2" />
    <circle cx="400.025" cy="44.3718" r="53.8112" transform="rotate(143.573 400.025 44.3718)"
        stroke="#261003" stroke-opacity="0.2" stroke-width="4.72028" />
    <circle cx="401.146" cy="45.8911" r="29.7378" transform="rotate(143.573 401.146 45.8911)"
        stroke="#261003" stroke-opacity="0.2" stroke-width="1.88811" />
    <path
        d="M661.25 391.518C678.73 394.152 747.848 379.187 768.787 361.248C761.364 351.19 751.106 345.71 738.934 329.216C733.589 321.975 714.713 293.028 713.633 238.518C712.785 195.645 696.33 155.589 655.538 147.166C614.746 138.743 592.58 154.48 579.706 163.981C565.223 174.669 544.751 222.713 539.521 226.572C534.291 230.432 513.747 213.3 510.345 223.247C507.788 230.727 518.065 233.706 531.226 238.908C541.588 252.389 555.934 276.599 561.479 296.744C565.175 310.173 590.135 356.228 602.249 365.461C632.075 388.192 643.769 388.883 661.25 391.518Z"
        stroke="#261003" stroke-opacity="0.2" stroke-width="2" />
    <circle cx="630.024" cy="252.372" r="66.5" transform="rotate(143.573 630.024 252.372)"
        stroke="#261003" stroke-opacity="0.2" stroke-width="2" />
    <circle cx="630.024" cy="252.372" r="53.8112" transform="rotate(143.573 630.024 252.372)"
        stroke="#261003" stroke-opacity="0.2" stroke-width="4.72028" />
    <circle cx="631.145" cy="253.891" r="29.7378" transform="rotate(143.573 631.145 253.891)"
        stroke="#261003" stroke-opacity="0.2" stroke-width="1.88811" />
    <path
        d="M891.247 599.518C908.728 602.152 977.845 587.187 998.785 569.248C991.362 559.19 981.104 553.711 968.931 537.216C963.587 529.975 944.71 501.028 943.631 446.518C942.782 403.645 926.328 363.589 885.536 355.166C844.743 346.743 822.577 362.48 809.704 371.981C795.221 382.669 774.748 430.713 769.518 434.572C764.288 438.432 743.744 421.3 740.343 431.247C737.785 438.727 748.062 441.706 761.223 446.908C771.586 460.389 785.932 484.599 791.477 504.744C795.173 518.173 820.133 564.228 832.247 573.461C862.072 596.192 873.767 596.883 891.247 599.518Z"
        stroke="#261003" stroke-opacity="0.2" stroke-width="2" />
    <circle cx="860.022" cy="460.372" r="66.5" transform="rotate(143.573 860.022 460.372)"
        stroke="#261003" stroke-opacity="0.2" stroke-width="2" />
    <circle cx="860.022" cy="460.372" r="53.8112" transform="rotate(143.573 860.022 460.372)"
        stroke="#261003" stroke-opacity="0.2" stroke-width="4.72028" />
    <circle cx="861.143" cy="461.891" r="29.7378" transform="rotate(143.573 861.143 461.891)"
        stroke="#261003" stroke-opacity="0.2" stroke-width="1.88811" />
    <path
        d="M891.247 599.518C908.728 602.152 977.845 587.187 998.785 569.248C991.362 559.19 981.104 553.711 968.931 537.216C963.587 529.975 944.71 501.028 943.631 446.518C942.782 403.645 926.328 363.589 885.536 355.166C844.743 346.743 822.577 362.48 809.704 371.981C795.221 382.669 774.748 430.713 769.518 434.572C764.288 438.432 743.744 421.3 740.343 431.247C737.785 438.727 748.062 441.706 761.223 446.908C771.586 460.389 785.932 484.599 791.477 504.744C795.173 518.173 820.133 564.228 832.247 573.461C862.072 596.192 873.767 596.883 891.247 599.518Z"
        stroke="#261003" stroke-opacity="0.2" stroke-width="2" />
    <circle cx="860.022" cy="460.372" r="66.5" transform="rotate(143.573 860.022 460.372)"
        stroke="#261003" stroke-opacity="0.2" stroke-width="2" />
    <circle cx="860.022" cy="460.372" r="53.8112" transform="rotate(143.573 860.022 460.372)"
        stroke="#261003" stroke-opacity="0.2" stroke-width="4.72028" />
    <circle cx="861.143" cy="461.891" r="29.7378" transform="rotate(143.573 861.143 461.891)"
        stroke="#261003" stroke-opacity="0.2" stroke-width="1.88811" />
    <path
        d="M1121.25 807.518C1138.73 810.152 1207.84 795.187 1228.78 777.248C1221.36 767.19 1211.1 761.711 1198.93 745.216C1193.59 737.975 1174.71 709.028 1173.63 654.518C1172.78 611.645 1156.33 571.589 1115.53 563.166C1074.74 554.743 1052.58 570.48 1039.7 579.981C1025.22 590.669 1004.75 638.713 999.517 642.572C994.287 646.432 973.743 629.3 970.342 639.247C967.784 646.727 978.061 649.706 991.222 654.908C1001.58 668.389 1015.93 692.599 1021.48 712.744C1025.17 726.173 1050.13 772.228 1062.25 781.461C1092.07 804.192 1103.77 804.883 1121.25 807.518Z"
        stroke="#261003" stroke-opacity="0.2" stroke-width="2" />
    <circle cx="1090.02" cy="668.372" r="66.5" transform="rotate(143.573 1090.02 668.372)"
        stroke="#261003" stroke-opacity="0.2" stroke-width="2" />
    <circle cx="1090.02" cy="668.372" r="53.8112" transform="rotate(143.573 1090.02 668.372)"
        stroke="#261003" stroke-opacity="0.2" stroke-width="4.72028" />
    <circle cx="1091.14" cy="669.891" r="29.7378" transform="rotate(143.573 1091.14 669.891)"
        stroke="#261003" stroke-opacity="0.2" stroke-width="1.88811" />
    <path
        d="M478.965 341.886C483.573 324.819 476.577 254.447 461.14 231.601C450.303 237.83 443.69 247.397 425.917 257.612C418.114 262.096 387.205 277.554 332.927 272.417C290.237 268.377 248.567 280.162 235.553 319.73C222.539 359.297 235.648 383.111 243.621 396.984C252.59 412.59 297.99 438.401 301.228 444.036C304.467 449.672 285.107 468.131 294.602 472.643C301.742 476.036 305.872 466.165 312.539 453.682C327.112 444.922 352.799 433.428 373.445 430.213C387.207 428.07 435.805 408.519 446.358 397.535C472.338 370.493 474.356 358.953 478.965 341.886Z"
        stroke="#261003" stroke-opacity="0.2" stroke-width="2" />
    <circle cx="337.168" cy="357.06" r="66.5" transform="rotate(60.1128 337.168 357.06)"
        stroke="#261003" stroke-opacity="0.2" stroke-width="2" />
    <circle cx="337.168" cy="357.06" r="53.8112" transform="rotate(60.1128 337.168 357.06)"
        stroke="#261003" stroke-opacity="0.2" stroke-width="4.72028" />
    <circle cx="338.805" cy="356.119" r="29.7378" transform="rotate(60.1128 338.805 356.119)"
        stroke="#261003" stroke-opacity="0.2" stroke-width="1.88811" />
    <path
        d="M694.965 564.886C699.573 547.819 692.577 477.447 677.14 454.601C666.302 460.83 659.69 470.397 641.917 480.612C634.113 485.096 603.205 500.554 548.927 495.417C506.236 491.377 464.567 503.162 451.553 542.73C438.538 582.297 451.648 606.111 459.621 619.984C468.59 635.59 513.989 661.401 517.228 667.036C520.467 672.672 501.107 691.131 510.601 695.643C517.742 699.036 521.872 689.165 528.539 676.682C543.112 667.922 568.799 656.428 589.444 653.213C603.207 651.07 651.805 631.519 662.358 620.535C688.338 593.493 690.356 581.953 694.965 564.886Z"
        stroke="#261003" stroke-opacity="0.2" stroke-width="2" />
    <circle cx="553.168" cy="580.06" r="66.5" transform="rotate(60.1128 553.168 580.06)"
        stroke="#261003" stroke-opacity="0.2" stroke-width="2" />
    <circle cx="553.168" cy="580.06" r="53.8112" transform="rotate(60.1128 553.168 580.06)"
        stroke="#261003" stroke-opacity="0.2" stroke-width="4.72028" />
    <circle cx="554.805" cy="579.119" r="29.7378" transform="rotate(60.1128 554.805 579.119)"
        stroke="#261003" stroke-opacity="0.2" stroke-width="1.88811" />
    <path
        d="M910.963 787.886C915.572 770.819 908.576 700.447 893.139 677.601C882.301 683.83 875.689 693.397 857.915 703.612C850.112 708.096 819.204 723.554 764.926 718.417C722.235 714.377 680.566 726.162 667.551 765.73C654.537 805.298 667.647 829.111 675.619 842.984C684.589 858.59 729.988 884.401 733.227 890.036C736.466 895.672 717.106 914.131 726.6 918.643C733.741 922.036 737.871 912.165 744.538 899.683C759.111 890.923 784.797 879.428 805.443 876.213C819.206 874.07 867.804 854.519 878.356 843.535C904.337 816.493 906.355 804.953 910.963 787.886Z"
        stroke="#261003" stroke-opacity="0.2" stroke-width="2" />
    <circle cx="769.167" cy="803.06" r="66.5" transform="rotate(60.1128 769.167 803.06)"
        stroke="#261003" stroke-opacity="0.2" stroke-width="2" />
    <circle cx="769.167" cy="803.06" r="53.8112" transform="rotate(60.1128 769.167 803.06)"
        stroke="#261003" stroke-opacity="0.2" stroke-width="4.72028" />
    <circle cx="770.804" cy="802.119" r="29.7378" transform="rotate(60.1128 770.804 802.119)"
        stroke="#261003" stroke-opacity="0.2" stroke-width="1.88811" />
    <path
        d="M1369.25 1026.52C1386.73 1029.15 1455.85 1014.19 1476.79 996.248C1469.36 986.19 1459.11 980.711 1446.93 964.216C1441.59 956.975 1422.71 928.028 1421.63 873.518C1420.78 830.645 1404.33 790.589 1363.54 782.166C1322.75 773.743 1300.58 789.48 1287.71 798.981C1273.22 809.669 1252.75 857.713 1247.52 861.573C1242.29 865.432 1221.75 848.301 1218.35 858.247C1215.79 865.728 1226.06 868.707 1239.23 873.909C1249.59 887.389 1263.93 911.599 1269.48 931.744C1273.18 945.173 1298.14 991.229 1310.25 1000.46C1340.07 1023.19 1351.77 1023.88 1369.25 1026.52Z"
        stroke="#261003" stroke-opacity="0.2" stroke-width="2" />
    <circle cx="1338.02" cy="887.372" r="66.5" transform="rotate(143.573 1338.02 887.372)"
        stroke="#261003" stroke-opacity="0.2" stroke-width="2" />
    <circle cx="1338.02" cy="887.372" r="53.8112" transform="rotate(143.573 1338.02 887.372)"
        stroke="#261003" stroke-opacity="0.2" stroke-width="4.72028" />
    <circle cx="1339.15" cy="888.891" r="29.7378" transform="rotate(143.573 1339.15 888.891)"
        stroke="#261003" stroke-opacity="0.2" stroke-width="1.88811" />
    <path
        d="M256.964 122.887C261.573 105.82 254.577 35.4476 239.139 12.6015C228.302 18.8302 221.69 28.3972 203.916 38.6122C196.113 43.0968 165.205 58.5539 110.926 53.4175C68.2358 49.3776 26.5666 61.1626 13.5522 100.73C0.537855 140.298 13.6475 164.112 21.6202 177.984C30.5895 193.59 75.9888 219.401 79.2277 225.037C82.4667 230.672 63.1066 249.131 72.6008 253.643C79.7414 257.037 83.8717 247.166 90.5386 234.683C105.112 225.923 130.798 214.428 151.444 211.214C165.206 209.071 213.805 189.519 224.357 178.535C250.337 151.493 252.356 139.953 256.964 122.887Z"
        stroke="#261003" stroke-opacity="0.2" stroke-width="2" />
    <circle cx="115.167" cy="138.061" r="66.5" transform="rotate(60.1128 115.167 138.061)"
        stroke="#261003" stroke-opacity="0.2" stroke-width="2" />
    <circle cx="115.167" cy="138.06" r="53.8112" transform="rotate(60.1128 115.167 138.06)"
        stroke="#261003" stroke-opacity="0.2" stroke-width="4.72028" />
    <circle cx="116.804" cy="137.12" r="29.7378" transform="rotate(60.1128 116.804 137.12)"
        stroke="#261003" stroke-opacity="0.2" stroke-width="1.88811" />
    <path
        d="M-76.7496 458.518C-59.2689 461.153 9.84847 446.187 30.7877 428.248C23.3652 418.19 13.1072 412.711 0.934409 396.216C-4.4098 388.975 -23.2867 360.028 -24.3658 305.518C-25.2145 262.645 -41.6688 222.589 -82.4612 214.166C-123.254 205.743 -145.42 221.48 -158.293 230.981C-172.776 241.669 -193.249 289.713 -198.479 293.573C-203.709 297.432 -224.253 280.301 -227.654 290.247C-230.212 297.728 -219.934 300.707 -206.774 305.908C-196.411 319.389 -182.065 343.599 -176.52 363.744C-172.824 377.173 -147.864 423.229 -135.75 432.461C-105.925 455.192 -94.2303 455.883 -76.7496 458.518Z"
        stroke="#261003" stroke-opacity="0.2" stroke-width="2" />
    <path
        d="M153.25 666.518C170.73 669.153 239.848 654.187 260.787 636.248C253.364 626.19 243.106 620.711 230.934 604.216C225.589 596.975 206.712 568.028 205.633 513.518C204.785 470.645 188.33 430.589 147.538 422.166C106.745 413.743 84.5796 429.48 71.7058 438.981C57.2228 449.669 36.7505 497.713 31.5205 501.573C26.2905 505.432 5.74659 488.301 2.34543 498.247C-0.212556 505.728 10.0647 508.707 23.2255 513.908C33.5883 527.389 47.934 551.599 53.479 571.744C57.1753 585.173 82.1349 631.229 94.2492 640.461C124.075 663.192 135.769 663.883 153.25 666.518Z"
        stroke="#261003" stroke-opacity="0.2" stroke-width="2" />
    <circle cx="122.024" cy="527.372" r="66.5" transform="rotate(143.573 122.024 527.372)"
        stroke="#261003" stroke-opacity="0.2" stroke-width="2" />
    <circle cx="122.024" cy="527.372" r="53.8112" transform="rotate(143.573 122.024 527.372)"
        stroke="#261003" stroke-opacity="0.2" stroke-width="4.72028" />
    <circle cx="123.145" cy="528.891" r="29.7378" transform="rotate(143.573 123.145 528.891)"
        stroke="#261003" stroke-opacity="0.2" stroke-width="1.88811" />
    <path
        d="M383.247 874.518C400.728 877.153 469.845 862.187 490.785 844.248C483.362 834.19 473.104 828.711 460.931 812.216C455.587 804.975 436.71 776.028 435.631 721.518C434.782 678.645 418.328 638.589 377.536 630.166C336.743 621.743 314.577 637.48 301.703 646.981C287.22 657.669 266.748 705.713 261.518 709.573C256.288 713.432 235.744 696.301 232.343 706.247C229.785 713.728 240.062 716.707 253.223 721.909C263.586 735.389 277.932 759.599 283.477 779.744C287.173 793.173 312.133 839.229 324.247 848.461C354.072 871.192 365.767 871.883 383.247 874.518Z"
        stroke="#261003" stroke-opacity="0.2" stroke-width="2" />
    <circle cx="352.022" cy="735.372" r="66.5" transform="rotate(143.573 352.022 735.372)"
        stroke="#261003" stroke-opacity="0.2" stroke-width="2" />
    <circle cx="352.022" cy="735.372" r="53.8112" transform="rotate(143.573 352.022 735.372)"
        stroke="#261003" stroke-opacity="0.2" stroke-width="4.72028" />
    <circle cx="353.143" cy="736.891" r="29.7378" transform="rotate(143.573 353.143 736.891)"
        stroke="#261003" stroke-opacity="0.2" stroke-width="1.88811" />
    <path
        d="M383.247 874.518C400.728 877.153 469.845 862.187 490.785 844.248C483.362 834.19 473.104 828.711 460.931 812.216C455.587 804.975 436.71 776.028 435.631 721.518C434.782 678.645 418.328 638.589 377.536 630.166C336.743 621.743 314.577 637.48 301.703 646.981C287.22 657.669 266.748 705.713 261.518 709.573C256.288 713.432 235.744 696.301 232.343 706.247C229.785 713.728 240.062 716.707 253.223 721.909C263.586 735.389 277.932 759.599 283.477 779.744C287.173 793.173 312.133 839.229 324.247 848.461C354.072 871.192 365.767 871.883 383.247 874.518Z"
        stroke="#261003" stroke-opacity="0.2" stroke-width="2" />
    <circle cx="352.022" cy="735.372" r="66.5" transform="rotate(143.573 352.022 735.372)"
        stroke="#261003" stroke-opacity="0.2" stroke-width="2" />
    <circle cx="352.022" cy="735.372" r="53.8112" transform="rotate(143.573 352.022 735.372)"
        stroke="#261003" stroke-opacity="0.2" stroke-width="4.72028" />
    <circle cx="353.143" cy="736.891" r="29.7378" transform="rotate(143.573 353.143 736.891)"
        stroke="#261003" stroke-opacity="0.2" stroke-width="1.88811" />
    <path
        d="M613.246 1082.52C630.727 1085.15 699.844 1070.19 720.783 1052.25C713.361 1042.19 703.103 1036.71 690.93 1020.22C685.586 1012.97 666.709 984.028 665.63 929.518C664.781 886.645 648.327 846.589 607.535 838.166C566.742 829.743 544.576 845.48 531.702 854.981C517.219 865.669 496.747 913.713 491.517 917.573C486.287 921.432 465.743 904.301 462.342 914.247C459.784 921.728 470.061 924.707 483.222 929.909C493.585 943.389 507.931 967.599 513.476 987.744C517.172 1001.17 542.132 1047.23 554.246 1056.46C584.071 1079.19 595.765 1079.88 613.246 1082.52Z"
        stroke="#261003" stroke-opacity="0.2" stroke-width="2" />
    <circle cx="582.021" cy="943.372" r="66.5" transform="rotate(143.573 582.021 943.372)"
        stroke="#261003" stroke-opacity="0.2" stroke-width="2" />
    <circle cx="582.021" cy="943.372" r="53.8112" transform="rotate(143.573 582.021 943.372)"
        stroke="#261003" stroke-opacity="0.2" stroke-width="4.72028" />
    <path
        d="M-29.0353 616.886C-24.4267 599.82 -31.4228 529.447 -46.86 506.601C-57.6976 512.83 -64.3099 522.397 -82.0834 532.612C-89.8865 537.097 -120.795 552.554 -175.073 547.417C-217.764 543.377 -259.433 555.162 -272.447 594.73C-285.462 634.298 -272.352 658.112 -264.379 671.984C-255.41 687.59 -210.011 713.401 -206.772 719.037C-203.533 724.672 -222.893 743.131 -213.399 747.643C-206.258 751.036 -202.128 741.165 -195.461 728.683C-180.888 719.923 -155.201 708.428 -134.556 705.213C-120.793 703.071 -72.1947 683.519 -61.6422 672.535C-35.662 645.493 -33.6439 633.953 -29.0353 616.886Z"
        stroke="#261003" stroke-opacity="0.2" stroke-width="2" />
    <path
        d="M186.965 839.886C191.573 822.82 184.577 752.447 169.14 729.601C158.302 735.83 151.69 745.397 133.916 755.612C126.113 760.097 95.205 775.554 40.9269 770.417C-1.76366 766.377 -43.4329 778.162 -56.4473 817.73C-69.4617 857.298 -56.352 881.112 -48.3793 894.984C-39.41 910.59 5.98932 936.401 9.22823 942.037C12.4671 947.672 -6.89291 966.131 2.60133 970.643C9.74185 974.036 13.8722 964.165 20.5391 951.683C35.1121 942.923 60.7988 931.428 81.4444 928.213C95.2069 926.071 143.805 906.519 154.358 895.535C180.338 868.493 182.356 856.953 186.965 839.886Z"
        stroke="#261003" stroke-opacity="0.2" stroke-width="2" />
    <circle cx="45.1678" cy="855.06" r="66.5" transform="rotate(60.1128 45.1678 855.06)"
        stroke="#261003" stroke-opacity="0.2" stroke-width="2" />
    <circle cx="45.1679" cy="855.06" r="53.8112" transform="rotate(60.1128 45.1679 855.06)"
        stroke="#261003" stroke-opacity="0.2" stroke-width="4.72028" />
    <circle cx="46.8049" cy="854.12" r="29.7378" transform="rotate(60.1128 46.8049 854.12)"
        stroke="#261003" stroke-opacity="0.2" stroke-width="1.88811" />
    <path
        d="M1961.25 111.518C1978.73 114.153 2047.85 99.1868 2068.78 81.248C2061.36 71.1904 2051.1 65.7108 2038.93 49.2163C2033.59 41.9748 2014.71 13.0281 2013.63 -41.4819C2012.78 -84.3548 1996.33 -124.411 1955.54 -132.834C1914.74 -141.257 1892.58 -125.52 1879.7 -116.019C1865.22 -105.331 1844.75 -57.2871 1839.52 -53.4274C1834.29 -49.5677 1813.74 -66.6993 1810.34 -56.753C1807.79 -49.2724 1818.06 -46.2933 1831.22 -41.0915C1841.59 -27.611 1855.93 -3.40074 1861.48 16.7444C1865.17 30.1733 1890.13 76.2286 1902.25 85.4613C1932.07 108.192 1943.77 108.883 1961.25 111.518Z"
        stroke="#261003" stroke-opacity="0.2" stroke-width="2" />
    <circle cx="1930.02" cy="-27.628" r="66.5" transform="rotate(143.573 1930.02 -27.628)"
        stroke="#261003" stroke-opacity="0.2" stroke-width="2" />
    <circle cx="1930.02" cy="-27.6279" r="53.8112" transform="rotate(143.573 1930.02 -27.6279)"
        stroke="#261003" stroke-opacity="0.2" stroke-width="4.72028" />
    <circle cx="1931.14" cy="-26.1087" r="29.7378" transform="rotate(143.573 1931.14 -26.1087)"
        stroke="#261003" stroke-opacity="0.2" stroke-width="1.88811" />
    <path
        d="M1961.25 111.518C1978.73 114.153 2047.85 99.1868 2068.78 81.248C2061.36 71.1904 2051.1 65.7108 2038.93 49.2163C2033.59 41.9748 2014.71 13.0281 2013.63 -41.4819C2012.78 -84.3548 1996.33 -124.411 1955.54 -132.834C1914.74 -141.257 1892.58 -125.52 1879.7 -116.019C1865.22 -105.331 1844.75 -57.2871 1839.52 -53.4274C1834.29 -49.5677 1813.74 -66.6993 1810.34 -56.753C1807.79 -49.2724 1818.06 -46.2933 1831.22 -41.0915C1841.59 -27.611 1855.93 -3.40074 1861.48 16.7444C1865.17 30.1733 1890.13 76.2286 1902.25 85.4613C1932.07 108.192 1943.77 108.883 1961.25 111.518Z"
        stroke="#261003" stroke-opacity="0.2" stroke-width="2" />
    <circle cx="1930.02" cy="-27.628" r="66.5" transform="rotate(143.573 1930.02 -27.628)"
        stroke="#261003" stroke-opacity="0.2" stroke-width="2" />
    <circle cx="1930.02" cy="-27.6279" r="53.8112" transform="rotate(143.573 1930.02 -27.6279)"
        stroke="#261003" stroke-opacity="0.2" stroke-width="4.72028" />
    <circle cx="1931.14" cy="-26.1087" r="29.7378" transform="rotate(143.573 1931.14 -26.1087)"
        stroke="#261003" stroke-opacity="0.2" stroke-width="1.88811" />
    <path
        d="M1764.96 76.8865C1769.57 59.8197 1762.58 -10.5525 1747.14 -33.3986C1736.3 -27.17 1729.69 -17.6029 1711.92 -7.38794C1704.11 -2.90329 1673.21 12.5538 1618.93 7.41736C1576.24 3.37747 1534.57 15.1625 1521.55 54.7301C1508.54 94.2978 1521.65 118.112 1529.62 131.984C1538.59 147.59 1583.99 173.401 1587.23 179.037C1590.47 184.672 1571.11 203.131 1580.6 207.643C1587.74 211.036 1591.87 201.165 1598.54 188.683C1613.11 179.923 1638.8 168.428 1659.44 165.213C1673.21 163.071 1721.81 143.519 1732.36 132.535C1758.34 105.493 1760.36 93.9534 1764.96 76.8865Z"
        stroke="#261003" stroke-opacity="0.2" stroke-width="2" />
    <circle cx="1623.17" cy="92.0604" r="66.5" transform="rotate(60.1128 1623.17 92.0604)"
        stroke="#261003" stroke-opacity="0.2" stroke-width="2" />
    <circle cx="1623.17" cy="92.0603" r="53.8112" transform="rotate(60.1128 1623.17 92.0603)"
        stroke="#261003" stroke-opacity="0.2" stroke-width="4.72028" />
    <circle cx="1624.8" cy="91.1197" r="29.7378" transform="rotate(60.1128 1624.8 91.1197)"
        stroke="#261003" stroke-opacity="0.2" stroke-width="1.88811" />
    <path
        d="M1980.96 299.887C1985.57 282.82 1978.58 212.447 1963.14 189.601C1952.3 195.83 1945.69 205.397 1927.92 215.612C1920.11 220.097 1889.2 235.554 1834.93 230.417C1792.24 226.377 1750.57 238.162 1737.55 277.73C1724.54 317.298 1737.65 341.112 1745.62 354.984C1754.59 370.59 1799.99 396.401 1803.23 402.037C1806.47 407.672 1787.11 426.131 1796.6 430.643C1803.74 434.036 1807.87 424.165 1814.54 411.683C1829.11 402.923 1854.8 391.428 1875.44 388.213C1889.21 386.071 1937.8 366.519 1948.36 355.535C1974.34 328.493 1976.35 316.953 1980.96 299.887Z"
        stroke="#261003" stroke-opacity="0.2" stroke-width="2" />
    <circle cx="1839.17" cy="315.06" r="66.5" transform="rotate(60.1128 1839.17 315.06)"
        stroke="#261003" stroke-opacity="0.2" stroke-width="2" />
    <circle cx="1839.17" cy="315.06" r="53.8112" transform="rotate(60.1128 1839.17 315.06)"
        stroke="#261003" stroke-opacity="0.2" stroke-width="4.72028" />
    <circle cx="1840.8" cy="314.12" r="29.7378" transform="rotate(60.1128 1840.8 314.12)"
        stroke="#261003" stroke-opacity="0.2" stroke-width="1.88811" />
    <path
        d="M993.25 -29.4819C1010.73 -26.8471 1079.85 -41.8129 1100.79 -59.7517C1093.37 -69.8094 1083.11 -75.289 1070.93 -91.7834C1065.59 -99.0249 1046.71 -127.972 1045.63 -182.482C1044.79 -225.355 1028.33 -265.41 987.539 -273.833C946.746 -282.256 924.58 -266.52 911.707 -257.019C897.224 -246.331 876.751 -198.287 871.521 -194.427C866.291 -190.567 845.747 -207.699 842.346 -197.753C839.788 -190.272 850.066 -187.293 863.226 -182.091C873.589 -168.611 887.935 -144.4 893.48 -124.255C897.176 -110.826 922.136 -64.7712 934.25 -55.5384C964.075 -32.8073 975.77 -32.1167 993.25 -29.4819Z"
        stroke="#261003" stroke-opacity="0.2" stroke-width="2" />
    <path
        d="M1223.25 178.518C1240.73 181.153 1309.85 166.187 1330.79 148.248C1323.36 138.191 1313.11 132.711 1300.93 116.217C1295.59 108.975 1276.71 80.0283 1275.63 25.5183C1274.78 -17.3545 1258.33 -57.4104 1217.54 -65.8334C1176.75 -74.2565 1154.58 -58.5198 1141.71 -49.019C1127.22 -38.3306 1106.75 9.71312 1101.52 13.5728C1096.29 17.4325 1075.75 0.300885 1072.35 10.2472C1069.79 17.7278 1080.06 20.7069 1093.23 25.9087C1103.59 39.3892 1117.93 63.5995 1123.48 83.7446C1127.18 97.1736 1152.13 143.229 1164.25 152.462C1194.07 175.193 1205.77 175.883 1223.25 178.518Z"
        stroke="#261003" stroke-opacity="0.2" stroke-width="2" />
    <circle cx="1192.02" cy="39.3722" r="66.5" transform="rotate(143.573 1192.02 39.3722)"
        stroke="#261003" stroke-opacity="0.2" stroke-width="2" />
    <circle cx="1192.02" cy="39.3723" r="53.8112" transform="rotate(143.573 1192.02 39.3723)"
        stroke="#261003" stroke-opacity="0.2" stroke-width="4.72028" />
    <circle cx="1193.15" cy="40.8916" r="29.7378" transform="rotate(143.573 1193.15 40.8916)"
        stroke="#261003" stroke-opacity="0.2" stroke-width="1.88811" />
    <path
        d="M1453.25 386.518C1470.73 389.153 1539.85 374.187 1560.78 356.248C1553.36 346.191 1543.1 340.711 1530.93 324.217C1525.59 316.975 1506.71 288.028 1505.63 233.518C1504.78 190.645 1488.33 150.59 1447.54 142.167C1406.74 133.744 1384.58 149.48 1371.7 158.981C1357.22 169.669 1336.75 217.713 1331.52 221.573C1326.29 225.433 1305.74 208.301 1302.34 218.247C1299.79 225.728 1310.06 228.707 1323.22 233.909C1333.59 247.389 1347.93 271.6 1353.48 291.745C1357.17 305.174 1382.13 351.229 1394.25 360.462C1424.07 383.193 1435.77 383.883 1453.25 386.518Z"
        stroke="#261003" stroke-opacity="0.2" stroke-width="2" />
    <circle cx="1422.02" cy="247.372" r="66.5" transform="rotate(143.573 1422.02 247.372)"
        stroke="#261003" stroke-opacity="0.2" stroke-width="2" />
    <circle cx="1422.02" cy="247.372" r="53.8112" transform="rotate(143.573 1422.02 247.372)"
        stroke="#261003" stroke-opacity="0.2" stroke-width="4.72028" />
    <circle cx="1423.14" cy="248.892" r="29.7378" transform="rotate(143.573 1423.14 248.892)"
        stroke="#261003" stroke-opacity="0.2" stroke-width="1.88811" />
    <path
        d="M1453.25 386.518C1470.73 389.153 1539.85 374.187 1560.78 356.248C1553.36 346.191 1543.1 340.711 1530.93 324.217C1525.59 316.975 1506.71 288.028 1505.63 233.518C1504.78 190.645 1488.33 150.59 1447.54 142.167C1406.74 133.744 1384.58 149.48 1371.7 158.981C1357.22 169.669 1336.75 217.713 1331.52 221.573C1326.29 225.433 1305.74 208.301 1302.34 218.247C1299.79 225.728 1310.06 228.707 1323.22 233.909C1333.59 247.389 1347.93 271.6 1353.48 291.745C1357.17 305.174 1382.13 351.229 1394.25 360.462C1424.07 383.193 1435.77 383.883 1453.25 386.518Z"
        stroke="#261003" stroke-opacity="0.2" stroke-width="2" />
    <circle cx="1422.02" cy="247.372" r="66.5" transform="rotate(143.573 1422.02 247.372)"
        stroke="#261003" stroke-opacity="0.2" stroke-width="2" />
    <circle cx="1422.02" cy="247.372" r="53.8112" transform="rotate(143.573 1422.02 247.372)"
        stroke="#261003" stroke-opacity="0.2" stroke-width="4.72028" />
    <circle cx="1423.14" cy="248.892" r="29.7378" transform="rotate(143.573 1423.14 248.892)"
        stroke="#261003" stroke-opacity="0.2" stroke-width="1.88811" />
    <path
        d="M1683.25 594.518C1700.73 597.153 1769.84 582.187 1790.78 564.248C1783.36 554.191 1773.1 548.711 1760.93 532.217C1755.59 524.975 1736.71 496.028 1735.63 441.518C1734.78 398.645 1718.33 358.59 1677.53 350.167C1636.74 341.744 1614.58 357.48 1601.7 366.981C1587.22 377.669 1566.75 425.713 1561.52 429.573C1556.29 433.433 1535.74 416.301 1532.34 426.247C1529.78 433.728 1540.06 436.707 1553.22 441.909C1563.58 455.389 1577.93 479.6 1583.48 499.745C1587.17 513.174 1612.13 559.229 1624.25 568.462C1654.07 591.193 1665.77 591.883 1683.25 594.518Z"
        stroke="#261003" stroke-opacity="0.2" stroke-width="2" />
    <circle cx="1652.02" cy="455.372" r="66.5" transform="rotate(143.573 1652.02 455.372)"
        stroke="#261003" stroke-opacity="0.2" stroke-width="2" />
    <circle cx="1652.02" cy="455.372" r="53.8112" transform="rotate(143.573 1652.02 455.372)"
        stroke="#261003" stroke-opacity="0.2" stroke-width="4.72028" />
    <circle cx="1653.14" cy="456.892" r="29.7378" transform="rotate(143.573 1653.14 456.892)"
        stroke="#261003" stroke-opacity="0.2" stroke-width="1.88811" />
    <path
        d="M1040.96 128.887C1045.57 111.82 1038.58 41.4477 1023.14 18.6016C1012.3 24.8302 1005.69 34.3973 987.917 44.6123C980.114 49.0969 949.205 64.554 894.927 59.4176C852.236 55.3777 810.567 67.1627 797.553 106.73C784.538 146.298 797.648 170.112 805.621 183.984C814.59 199.59 859.989 225.401 863.228 231.037C866.467 236.672 847.107 255.131 856.601 259.643C863.742 263.037 867.872 253.166 874.539 240.683C889.112 231.923 914.799 220.428 935.445 217.214C949.207 215.071 997.805 195.519 1008.36 184.535C1034.34 157.493 1036.36 145.954 1040.96 128.887Z"
        stroke="#261003" stroke-opacity="0.2" stroke-width="2" />
    <circle cx="899.168" cy="144.061" r="66.5" transform="rotate(60.1128 899.168 144.061)"
        stroke="#261003" stroke-opacity="0.2" stroke-width="2" />
    <circle cx="899.168" cy="144.061" r="53.8112" transform="rotate(60.1128 899.168 144.061)"
        stroke="#261003" stroke-opacity="0.2" stroke-width="4.72028" />
    <circle cx="900.805" cy="143.12" r="29.7378" transform="rotate(60.1128 900.805 143.12)"
        stroke="#261003" stroke-opacity="0.2" stroke-width="1.88811" />
    <path
        d="M1256.96 351.887C1261.57 334.82 1254.58 264.448 1239.14 241.602C1228.3 247.83 1221.69 257.397 1203.92 267.612C1196.11 272.097 1165.21 287.554 1110.93 282.418C1068.24 278.378 1026.57 290.163 1013.55 329.73C1000.54 369.298 1013.65 393.112 1021.62 406.984C1030.59 422.59 1075.99 448.401 1079.23 454.037C1082.47 459.672 1063.11 478.131 1072.6 482.643C1079.74 486.037 1083.87 476.166 1090.54 463.683C1105.11 454.923 1130.8 443.428 1151.44 440.214C1165.21 438.071 1213.81 418.519 1224.36 407.535C1250.34 380.493 1252.36 368.954 1256.96 351.887Z"
        stroke="#261003" stroke-opacity="0.2" stroke-width="2" />
    <circle cx="1115.17" cy="367.061" r="66.5" transform="rotate(60.1128 1115.17 367.061)"
        stroke="#261003" stroke-opacity="0.2" stroke-width="2" />
    <circle cx="1115.17" cy="367.061" r="53.8112" transform="rotate(60.1128 1115.17 367.061)"
        stroke="#261003" stroke-opacity="0.2" stroke-width="4.72028" />
    <circle cx="1116.81" cy="366.12" r="29.7378" transform="rotate(60.1128 1116.81 366.12)"
        stroke="#261003" stroke-opacity="0.2" stroke-width="1.88811" />
    <path
        d="M1472.96 574.887C1477.57 557.82 1470.58 487.448 1455.14 464.602C1444.3 470.83 1437.69 480.397 1419.92 490.612C1412.11 495.097 1381.2 510.554 1326.93 505.418C1284.24 501.378 1242.57 513.163 1229.55 552.73C1216.54 592.298 1229.65 616.112 1237.62 629.984C1246.59 645.59 1291.99 671.401 1295.23 677.037C1298.47 682.672 1279.11 701.131 1288.6 705.643C1295.74 709.037 1299.87 699.166 1306.54 686.683C1321.11 677.923 1346.8 666.428 1367.44 663.214C1381.21 661.071 1429.8 641.519 1440.36 630.535C1466.34 603.493 1468.35 591.954 1472.96 574.887Z"
        stroke="#261003" stroke-opacity="0.2" stroke-width="2" />
    <circle cx="1331.17" cy="590.061" r="66.5" transform="rotate(60.1128 1331.17 590.061)"
        stroke="#261003" stroke-opacity="0.2" stroke-width="2" />
    <circle cx="1331.17" cy="590.061" r="53.8112" transform="rotate(60.1128 1331.17 590.061)"
        stroke="#261003" stroke-opacity="0.2" stroke-width="4.72028" />
    <circle cx="1332.8" cy="589.12" r="29.7378" transform="rotate(60.1128 1332.8 589.12)"
        stroke="#261003" stroke-opacity="0.2" stroke-width="1.88811" />
    <path
        d="M1716.96 750.887C1721.57 733.82 1714.58 663.447 1699.14 640.601C1688.3 646.83 1681.69 656.397 1663.92 666.612C1656.11 671.097 1625.2 686.554 1570.93 681.417C1528.24 677.377 1486.57 689.162 1473.55 728.73C1460.54 768.298 1473.65 792.112 1481.62 805.984C1490.59 821.59 1535.99 847.401 1539.23 853.037C1542.47 858.672 1523.11 877.131 1532.6 881.643C1539.74 885.036 1543.87 875.165 1550.54 862.683C1565.11 853.923 1590.8 842.428 1611.44 839.213C1625.21 837.071 1673.8 817.519 1684.36 806.535C1710.34 779.493 1712.36 767.953 1716.96 750.887Z"
        stroke="#261003" stroke-opacity="0.2" stroke-width="2" />
    <circle cx="1575.17" cy="766.06" r="66.5" transform="rotate(60.1128 1575.17 766.06)"
        stroke="#261003" stroke-opacity="0.2" stroke-width="2" />
    <circle cx="1575.17" cy="766.06" r="53.8112" transform="rotate(60.1128 1575.17 766.06)"
        stroke="#261003" stroke-opacity="0.2" stroke-width="4.72028" />
    <circle cx="1576.8" cy="765.12" r="29.7378" transform="rotate(60.1128 1576.8 765.12)"
        stroke="#261003" stroke-opacity="0.2" stroke-width="1.88811" />
    <path
        d="M1931.25 813.518C1948.73 816.153 2017.85 801.187 2038.79 783.249C2031.36 773.191 2021.11 767.711 2008.93 751.217C2003.59 743.975 1984.71 715.029 1983.63 660.519C1982.78 617.646 1966.33 577.59 1925.54 569.167C1884.75 560.744 1862.58 576.48 1849.71 585.981C1835.22 596.67 1814.75 644.713 1809.52 648.573C1804.29 652.433 1783.75 635.301 1780.35 645.248C1777.79 652.728 1788.06 655.707 1801.23 660.909C1811.59 674.389 1825.93 698.6 1831.48 718.745C1835.18 732.174 1860.14 778.229 1872.25 787.462C1902.07 810.193 1913.77 810.884 1931.25 813.518Z"
        stroke="#261003" stroke-opacity="0.2" stroke-width="2" />
    <circle cx="1900.02" cy="674.372" r="66.5" transform="rotate(143.573 1900.02 674.372)"
        stroke="#261003" stroke-opacity="0.2" stroke-width="2" />
    <circle cx="1900.02" cy="674.372" r="53.8112" transform="rotate(143.573 1900.02 674.372)"
        stroke="#261003" stroke-opacity="0.2" stroke-width="4.72028" />
    <circle cx="1901.15" cy="675.892" r="29.7378" transform="rotate(143.573 1901.15 675.892)"
        stroke="#261003" stroke-opacity="0.2" stroke-width="1.88811" />
    <path
        d="M818.964 -90.1129C823.573 -107.18 816.577 -177.552 801.139 -200.398C790.302 -194.169 783.69 -184.602 765.916 -174.387C758.113 -169.903 727.205 -154.446 672.926 -159.582C630.236 -163.622 588.567 -151.837 575.552 -112.269C562.538 -72.7016 575.647 -48.8877 583.62 -35.0155C592.589 -19.4094 637.989 6.40172 641.228 12.0373C644.467 17.6728 625.107 36.1318 634.601 40.6437C641.741 44.0371 645.872 34.1661 652.539 21.6834C667.112 12.9234 692.798 1.42844 713.444 -1.78598C727.206 -3.92874 775.805 -23.4803 786.357 -34.4642C812.337 -61.5065 814.356 -73.046 818.964 -90.1129Z"
        stroke="#261003" stroke-opacity="0.2" stroke-width="2" />
    <circle cx="677.167" cy="-74.939" r="66.5" transform="rotate(60.1128 677.167 -74.939)"
        stroke="#261003" stroke-opacity="0.2" stroke-width="2" />
    <circle cx="677.167" cy="-74.9391" r="53.8112" transform="rotate(60.1128 677.167 -74.9391)"
        stroke="#261003" stroke-opacity="0.2" stroke-width="4.72028" />
</svg>