<svg xmlns="http://www.w3.org/2000/svg" version="1.1" xmlns:xlink="http://www.w3.org/1999/xlink"
    xmlns:svgjs="http://svgjs.dev/svgjs" viewBox="0 0 800 800" opacity="0.015">
    <defs>
        <linearGradient x1="50%" y1="0%" x2="50%" y2="100%" id="uundulate-grad">
            <stop stop-color="#261003" stop-opacity="1" offset="45%"></stop>
            <stop stop-color="hsl(47, 56%, 92%)" stop-opacity="1" offset="100%"></stop>
        </linearGradient>
    </defs>
    <g stroke-width="5" stroke="url(#uundulate-grad)" fill="none">
        <path
            d="M1476.2147051115512 106.71236956878852C1445.0701206052618 549.4654528832343 1438.1557946591083 572.8640201344015 1223.643392434943 961.4315267796901C1009.1309902107778 1349.9990334249792 848.9241939718636 1916.2464759665718 446.55517443555937 1971.8364014661765C44.18615489925469 2027.4263269657804 -591.9838341157429 1617.6143969942755 -707.7279013393172 1228.2631691777933C-823.4719685628916 838.9119413613103 -327.61986093700057 445.30058014676 -109.01634823759969 102.95050794705844C109.58716446180097 -239.39956425264336 32.78692913807299 -151.11430632312727 341.5689596178088 -415.01717738077514C650.3509900975446 -678.9200484384232 1136.7528677539372 -1272.4769287441454 1373.1373980651338 -1163.7832731296535C1609.5219283763304 -1055.0896175151618 1507.3592896178411 -336.0407137456573 1476.2147051115512 106.71236956878852C1445.0701206052618 549.4654528832343 1438.1557946591083 572.8640201344015 1223.643392434943 961.4315267796901 "></path>
        <path
            d="M1404.4670906561983 126.26506340417654C1375.3988117836607 539.5012744976593 1368.9454409005843 561.3399372654153 1168.7338654913633 924.0029434676849C968.522290082143 1286.6659496699544 818.9959469258229 1815.1635627087744 443.4515286919386 1867.0474931750718C67.90711045805438 1918.9314236413693 -525.8515459559434 1536.440289001298 -633.8793420312794 1173.045809705914C-741.9071381066154 809.6513304105301 -279.1118376557839 442.2807266102832 -75.0818924696764 122.75399255722846C128.948052716431 -196.7727414958265 57.267833080951505 -114.37316742827807 345.46439486203826 -360.68251374874967C633.660956643125 -606.9918600692212 1087.636042455758 -1160.978281687895 1308.2616040795415 -1059.530869781036C1528.887165703325 -958.0834578741769 1433.5353695287354 -286.97114768930624 1404.4670906561983 126.26506340417654C1375.3988117836607 539.5012744976593 1368.9454409005843 561.3399372654153 1168.7338654913633 924.0029434676849 "></path>
        <path
            d="M1332.7194151656886 145.81757413409582C1305.7274419269042 529.5369130066158 1299.7350261069041 549.8156712909604 1113.8242775126278 886.5741770502109C927.9135289183514 1223.332682809461 789.0676388446257 1714.0804663455083 440.34782191316185 1762.2584017784984C91.62800498169793 1810.4363372114894 -459.7193188313001 1455.2659979028517 -560.0308437583979 1117.8282671285665C-660.3423686854956 780.3905363542813 -230.6038754097235 439.26068996833783 -41.14749773690937 142.55729406192972C148.30887993590477 -154.14610184447838 81.74867598867365 -77.63221163889784 349.35976907111126 -306.3480332221927C616.9708621535492 -535.0638548054877 1038.5191561224226 -1049.4798177371135 1243.385749058793 -955.2786495378873C1448.2523419951635 -861.0774813386611 1359.711388404473 -237.90176473842394 1332.7194151656886 145.81757413409582C1305.7274419269042 529.5369130066158 1299.7350261069041 549.8156712909604 1113.8242775126278 886.5741770502109 "></path>
        <path
            d="M1260.9717701927566 165.3700848640151C1236.056102587725 519.5725515155718 1230.524641830802 538.2914053165055 1058.91472005147 849.1454106327365C887.304798272138 1159.9994159489675 759.1393612810066 1612.9973699822417 437.244145651963 1657.4693103819254C115.34893002291938 1701.9412507816087 -393.58706118907867 1374.091706804405 -486.18231496793817 1062.6107245512185C-578.7775687467977 751.1297422980324 -182.09588264608487 436.24065332639225 -7.213072486564215 162.360595566631C167.66973767295656 -111.5194621931305 106.22954941397393 -40.89125584951762 353.2551737977626 -252.0135526956359C600.2807981815513 -463.1358495417544 989.4023003066654 -937.981353786332 1178.5099245556228 -851.0264292947385C1367.61754880458 -764.071504803145 1285.887437797789 -188.83238178754164 1260.9717701927566 165.3700848640151C1236.056102587725 519.5725515155718 1230.524641830802 538.2914053165055 1058.91472005147 849.1454106327365 "></path>
        <path
            d="M1189.2241557374036 184.9224735236221C1166.3847937661242 509.6080679542156 1161.3142880722783 526.7670172717383 1004.0051931078906 811.71652214495C846.6960981435029 1096.666027018162 729.2111142349656 1511.914151548663 434.14049990834246 1552.68009691504C139.06988558171918 1593.4460422814163 -327.4547730292792 1292.9172936356458 -412.33375565990036 1007.3930599035584C-497.21273829052154 721.8688261714715 -133.5878593648681 433.2204946141344 26.721383281359067 182.16377500101999C187.03062592758647 -68.89294461209465 130.71045335685244 -4.150422130449442 357.1506090419921 -197.67919423939145C583.5907647271317 -391.20796634833334 940.2854750084862 -826.4830119058629 1113.6341305700305 -746.7743311219022C1286.9827861315744 -667.0656503379415 1212.0635177086824 -139.76312090697172 1189.2241557374036 184.9224735236221C1166.3847937661242 509.6080679542156 1161.3142880722783 526.7670172717383 1004.0051931078906 811.71652214495 "></path>
        <path
            d="M1117.4765107644719 204.47507580627553C1096.7134544269454 499.643798015906 1092.1039037961762 515.2428428500175 949.095635646733 774.2878472802099C806.0873674972895 1033.3328517104026 699.2828366713466 1410.8311467381313 431.0368236471436 1447.8910970712009C162.79081062294074 1484.9510474042704 -261.32251538705776 1211.743094089934 -338.4852268694406 952.1756088789452C-415.64793835182354 692.6081236679568 -85.07986660122958 430.2005495249232 60.65580853170434 201.96716805845563C206.39148366463826 -26.266213408012277 155.19132678215283 32.590625211665156 361.0460137686432 -143.34462216010024C566.9007007551338 -319.27986953186564 891.1686191927288 -714.984456402347 1048.75830606686 -642.5220193260191C1206.3479929409912 -570.0595822496912 1138.2395671019983 -90.69364640335493 1117.4765107644719 204.47507580627553C1096.7134544269454 499.643798015906 1092.1039037961762 515.2428428500175 949.095635646733 774.2878472802099 "></path>
        <path
            d="M1045.7288047563839 224.0275560186169C1027.0420540526102 489.67940600728434 1022.8934584849178 503.7185463579847 894.186017150419 736.8590503451578C765.4785758159201 969.999554332331 669.3544980725712 1309.7480198572866 427.9330863507887 1343.1019751570493C186.51167462900594 1376.455930456812 -195.1903187799926 1130.5687724739091 -264.6367591141372 896.9580357840196C-334.0831994482818 663.3472990941298 -36.57193487274719 427.1804823653997 94.59017274689324 221.77043904557877C225.7522803665338 16.360395725757712 179.67213917229685 69.33155048346737 364.9413574601384 -89.01017215112142C550.2105757479799 -247.35189478571033 842.0517023418154 -603.4860229691435 983.8824205285334 -538.2698296004485C1125.7131387152515 -473.05363623175333 1064.4155554601577 -41.62429397005076 1045.7288047563839 224.0275560186169C1027.0420540526102 489.67940600728434 1022.8934584849178 503.7185463579847 894.186017150419 736.8590503451578 "></path>
        <path
            d="M973.9811903010307 243.5800057133797C957.3707452310096 479.71498348108435 953.683104726394 492.1942193483735 839.2764902068393 699.4302228925276C724.8698756872848 906.6662264366814 639.4262510265305 1208.6648624588643 424.82944060716807 1238.3128227253198C210.23263018780563 1267.960782991776 -129.0580306201931 1049.3944203403062 -190.78819980609939 841.7404321715155C-252.51836899200572 634.0864440027249 11.936088408469459 424.1603846882981 128.52462851481664 241.57367951512379C245.1131686211637 58.986974341949576 204.15304311517536 106.07244523769157 368.8367927043678 -34.67575265972073C533.5205422935603 -175.42395055713314 792.9348770436363 -491.9876200535182 919.0066265429411 -434.0176703924559C1045.0783760422462 -376.04772073139355 990.5916353710518 7.445027945675406 973.9811903010307 243.5800057133797C957.3707452310096 479.71498348108435 953.683104726394 492.1942193483735 839.2764902068393 699.4302228925276 "></path>
        <path
            d="M902.2335453280991 263.13245540814296C887.6994058918303 469.75056095488435 884.4727204502922 480.66989233876234 784.3669327456817 662.0013954398971C684.2611450410714 843.3328985410319 609.4979734629114 1107.581705060442 421.7257643459693 1133.5236702935906C233.9535552290272 1159.4656355267393 -62.92577297797169 968.2200682067037 -116.9396710156397 786.5228285590117C-170.95356905330772 604.8255889113198 60.4440811721081 421.1402870111963 162.4590537651618 261.3769199846689C264.4740263582155 101.61355295814144 228.63391654047575 142.81333999191565 372.73219743101913 19.658666831679852C516.8304783215625 -103.49600632855595 743.818021227879 -380.48921713789287 854.1308020397707 -329.7655111844633C964.4435828516625 -279.04180523103383 916.7676847643677 56.51434986140157 902.2335453280991 263.13245540814296C887.6994058918303 469.75056095488435 884.4727204502922 480.66989233876234 784.3669327456817 662.0013954398971 "></path>
        <path
            d="M830.4859003551674 282.68496613806224C818.0280665526516 459.7861994638406 815.2623361741901 469.1456263643074 729.457375284524 624.5726290224229C643.6524143948582 779.9996316805384 579.5696958992924 1006.4986086971755 418.62208808477055 1028.7345788970174C257.67448027024875 1050.970549096859 3.2064846642497287 887.0457771082572 -43.09114222518002 731.3052859816639C-89.38876911460977 575.5647948550709 108.95207393574663 418.1202503692508 196.39347901550695 281.1802214893702C283.8348840952674 144.24019260948944 253.11478996577603 179.55429578129588 376.62760215767037 73.99314735823668C500.1404143495647 -31.56800106482251 694.7011654121218 -268.9907531871113 789.2549775366006 -225.51329094131455C883.8087896610791 -182.0358286955178 842.9437341576836 105.58373281228387 830.4859003551674 282.68496613806224C818.0280665526516 459.7861994638406 815.2623361741901 469.1456263643074 729.457375284524 624.5726290224229 "></path>
        <path
            d="M758.7382553822358 302.237598938294C748.3567272134728 449.82196004310924 746.0519518980882 457.621482460165 674.5478178233665 587.1439846752612C603.0436837486448 716.6664868903576 549.6414183356733 905.4156344042219 415.5184118235718 923.9456095707567C281.3954053114703 942.4755847372915 69.33874230647109 805.8716080801232 30.75738656527966 676.0878654746289C-7.82396917591177 546.3041228691346 157.4600666993852 415.10033579761784 230.3279042658521 300.98364506438406C303.1957418323191 186.86695433115005 277.5956633910764 216.29537364098883 380.5230068843216 128.32774995510613C483.4503503775669 40.36012626922343 645.5843095963644 -157.49216716601723 724.3791530334302 -121.26094862785328C803.1739964704957 -85.02973008968934 769.1197835509993 154.65323783347878 758.7382553822358 302.237598938294C748.3567272134728 449.82196004310924 746.0519518980882 457.621482460165 674.5478178233665 587.1439846752612 "></path>
        <path
            d="M686.9905798917263 321.7900181154789C678.6853573567157 439.85750699933124 676.841537104408 446.0971249329758 619.6382298446306 549.7151267050529C562.4349225848533 653.3331284771298 519.7131102544762 804.3324464882212 412.414705044795 819.1564266214491C305.11629983511375 833.980406754677 135.47096943111438 724.6972254289421 104.60588483816122 620.8702313445468C73.7408002452081 517.0432372601515 205.96802894544567 412.0802076029381 264.26229899861926 320.78685501635096C322.55656905179285 229.4935024297638 302.0765062987987 253.0362378776349 384.4183810933948 182.6621389289287C466.7602558879911 112.28803998022249 596.4674232630291 -45.99379476797003 659.5032980126815 -17.008819937438886C722.539172762334 11.976154893092257 695.2958024267368 203.72252923162682 686.9905798917263 321.7900181154789C678.6853573567157 439.85750699933124 676.841537104408 446.0971249329758 619.6382298446306 549.7151267050529 "></path>
        <path
            d="M615.2429501775837 341.3424983278202C609.0140332763258 429.89311499070936 607.631168087095 434.57282844094277 564.728687642262 512.2863297700005C521.8262071974291 589.9998310990583 489.7848479496462 703.2493196073768 409.3110440423852 714.3673047072978C328.8372401351244 725.4852898072186 201.60324233212486 643.5229038129177 178.45442888741002 565.652658249621C155.3056154426951 487.7824126863245 254.4760369678733 409.0601404434144 298.1967395077535 340.5901260034741C341.9174420476337 272.1201115635338 326.557394982888 289.777163149437 388.31380107883524 236.9965889379074C450.07020717478235 184.2160147263778 547.3505827060609 65.50463866523341 594.6274887683003 87.24336978813176C641.9043948305396 108.98210091103016 621.4718670788418 252.791881664931 615.2429501775837 341.3424983278202C609.0140332763258 429.89311499070936 607.631168087095 434.57282844094277 564.728687642262 512.2863297700005 "></path>
        <path
            d="M543.4953052046521 360.8950395753176C539.3426939371469 419.92878401724374 538.420783810993 423.0485929840661 509.81913018110436 474.85759387010455C481.21747655121567 526.666594756143 459.8565703860272 602.1662537616887 406.2073677811866 609.5782438283027C352.55816517634594 616.9902338949166 267.7354999743463 562.3486432320492 252.3029576778697 510.4351461898516C236.87041538139312 458.5216491476539 302.9840297315119 406.0401343190472 332.1311647580987 360.3934580257536C361.2782997846855 314.74678173246 351.0382684081884 326.5181494563956 392.2092058054865 291.3310999820425C433.38014320278467 256.14405050768937 498.2337268903036 177.0031331335931 529.7516642651299 191.4956205488587C561.2696016399561 205.98810796412425 547.6479164721575 301.86129513339154 543.4953052046521 360.8950395753176C539.3426939371469 419.92878401724374 538.420783810993 423.0485929840661 509.81913018110436 474.85759387010455 "></path>
        <path
            d="M471.7476602317206 380.44750452886973C469.671354597968 409.9643767498328 469.21039953489105 411.524281233244 454.9095727199467 437.4287816762632C440.60874590500237 463.33328211928244 429.92829282240814 501.0831116220553 403.1036915199878 504.7891066553623C376.2790902175675 508.49510168866925 333.86775761656764 481.17430635723554 326.1514864683294 455.21755783613673C318.43521532009106 429.2608093150379 351.4920224951505 403.02005190073453 366.06559000844385 380.19671375408774C380.6391575217373 357.37337560744095 375.51914183348873 363.2590594694087 396.10461053213777 345.6655347322322C416.69007923078686 328.0720099950556 449.11687107454634 288.5015513080075 464.87583976195947 295.7477950156403C480.6348084493726 302.9940387232731 473.82396586547327 350.9306323079067 471.7476602317206 380.44750452886973C469.671354597968 409.9643767498328 469.21039953489105 411.524281233244 454.9095727199467 437.4287816762632 "></path>
    </g>
</svg>